<?xml version="1.0" encoding="utf-8"?>
<!-- Generator: Adobe Illustrator 23.0.1, SVG Export Plug-In . SVG Version: 6.00 Build 0)  -->
<svg version="1.1" id="Layer_1" xmlns="http://www.w3.org/2000/svg" xmlns:xlink="http://www.w3.org/1999/xlink" x="0px" y="0px"
	 viewBox="0 0 300 90" style="enable-background:new 0 0 300 90;" xml:space="preserve">
<style type="text/css">
	.st0{fill:#00609C;}
	.st1{fill:#00CD68;}
	.st2{fill:#FFFFFF;}
</style>
<g>
	<g>
		<g>
			<path class="st0" d="M35.25,12.55c2.66-0.01,5.11,0.25,7.35,0.76c2.24,0.51,4.17,1.36,5.8,2.54c1.63,1.18,2.9,2.75,3.81,4.73
				c0.92,1.97,1.38,4.41,1.38,7.32c0.01,2.91-0.54,5.51-1.64,7.81c-1.1,2.3-2.6,4.24-4.49,5.82c-1.89,1.58-4.07,2.8-6.53,3.64
				c-2.46,0.84-5.07,1.27-7.83,1.28l-14.33,0.03L14.85,65.4L3.32,65.42l10.8-52.83L35.25,12.55z M32.53,37.42
				c2.95-0.01,5.28-0.76,6.97-2.27c1.69-1.51,2.54-3.85,2.53-7c0-1.33-0.24-2.43-0.71-3.29c-0.47-0.86-1.1-1.53-1.89-1.99
				c-0.79-0.47-1.66-0.8-2.62-0.99c-0.96-0.2-1.96-0.29-2.99-0.29l-9.9,0.02l-3.21,15.85L32.53,37.42z"/>
			<path class="st0" d="M55.36,32.75c1.13-1.6,2.5-2.89,4.11-3.87c1.62-0.98,3.43-1.69,5.44-2.11c2.01-0.42,4.09-0.63,6.25-0.64
				c1.72,0,3.51,0.11,5.37,0.35c1.86,0.24,3.58,0.71,5.14,1.42c1.57,0.71,2.85,1.71,3.86,3c1.01,1.29,1.49,3.02,1.44,5.17
				c0,1.81-0.26,3.94-0.79,6.4l-3.34,15.3c-0.19,0.69-0.33,1.53-0.4,2.54c-0.07,1-0.1,1.87-0.1,2.61c0,0.63,0.12,1.37,0.37,2.2
				l-10.46,0.02l-0.01-3.75c-1.42,1.63-3.16,2.82-5.22,3.59c-2.06,0.77-4.19,1.15-6.4,1.16c-2.06,0.01-3.87-0.26-5.41-0.79
				c-1.55-0.54-2.84-1.26-3.87-2.16c-1.03-0.9-1.8-1.96-2.29-3.16c-0.49-1.2-0.74-2.46-0.74-3.78c-0.01-3.68,1.25-6.62,3.77-8.83
				c2.52-2.21,6.09-3.59,10.71-4.14c2.45-0.3,4.59-0.53,6.41-0.68c1.81-0.15,3.32-0.39,4.53-0.71c1.2-0.32,2.1-0.79,2.68-1.4
				c0.59-0.61,0.88-1.53,0.88-2.76c0-0.98-0.23-1.76-0.67-2.35c-0.44-0.58-0.99-1.05-1.65-1.39c-0.66-0.34-1.37-0.58-2.14-0.69
				c-0.76-0.12-1.48-0.18-2.17-0.18c-1.86,0.01-3.53,0.46-5,1.37c-1.47,0.91-2.37,2.33-2.71,4.24l-9.78,0.03
				C53.5,36.35,54.23,34.35,55.36,32.75 M70.95,48.35c-1.52,0.18-3.04,0.31-4.57,0.41c-0.98,0.1-1.94,0.26-2.87,0.48
				c-0.93,0.22-1.75,0.56-2.47,1c-0.71,0.44-1.29,1.05-1.73,1.81c-0.44,0.76-0.66,1.73-0.66,2.9c0,1.42,0.58,2.49,1.74,3.19
				c1.16,0.71,2.5,1.06,4.02,1.06c1.62-0.01,2.98-0.27,4.09-0.78c1.1-0.52,2.03-1.18,2.79-1.99c0.76-0.81,1.36-1.73,1.8-2.76
				c0.44-1.03,0.8-2.06,1.1-3.09l1.03-3.68C73.9,47.7,72.47,48.18,70.95,48.35"/>
			<path class="st0" d="M98.98,73.98c-0.93,1.05-1.96,1.88-3.08,2.47c-1.12,0.59-2.41,1-3.86,1.22c-1.45,0.22-3.15,0.34-5.11,0.34
				c-0.88,0-1.79-0.04-2.72-0.14c-0.93-0.09-1.86-0.16-2.79-0.21l1.75-8.71c0.69,0,1.38,0.07,2.09,0.22
				c0.71,0.15,1.41,0.22,2.1,0.22c1.22-0.01,2.21-0.19,2.94-0.56c0.73-0.37,1.33-0.81,1.8-1.33c0.46-0.51,0.86-1.07,1.17-1.65
				s0.65-1.1,0.99-1.54L87.4,26.73l10.73-0.03l3.38,27.17h0.14l13.1-27.21l11.03-0.03l-24.09,43.34
				C100.81,71.59,99.91,72.92,98.98,73.98"/>
			<path class="st1" d="M160.7,24.06c-1.71-1.6-3.93-2.4-6.67-2.39c-2.88,0.01-5.39,0.67-7.53,2c-2.14,1.32-3.88,3.03-5.25,5.11
				c-1.37,2.09-2.38,4.41-3.05,6.97c-0.67,2.56-0.99,5.07-0.99,7.51c0.01,1.77,0.24,3.45,0.7,5.03c0.46,1.58,1.16,2.98,2.1,4.2
				c0.94,1.22,2.14,2.18,3.61,2.9c1.46,0.72,3.23,1.07,5.29,1.07c1.54,0,2.99-0.28,4.35-0.84c1.37-0.55,2.58-1.29,3.63-2.23
				c1.05-0.94,1.94-2.03,2.66-3.28c0.72-1.25,1.19-2.54,1.43-3.88l11.3-0.03c-1.14,3.59-2.49,6.64-4.04,9.13
				c-1.55,2.49-3.3,4.52-5.24,6.08c-1.94,1.56-4.09,2.69-6.46,3.39c-2.37,0.7-4.95,1.05-7.73,1.06c-7.29,0.02-12.92-1.91-16.88-5.77
				c-3.97-3.87-5.96-9.46-5.98-16.79c-0.01-4.17,0.63-8.12,1.91-11.86c1.29-3.73,3.14-7.03,5.55-9.89c2.42-2.85,5.36-5.12,8.83-6.81
				c3.47-1.68,7.37-2.53,11.68-2.54c2.97-0.01,5.73,0.4,8.27,1.2c2.54,0.8,4.74,2.01,6.59,3.6c1.85,1.6,3.28,3.58,4.3,5.95
				c1.01,2.37,1.5,5.11,1.46,8.22l-11.27,0.03C163.26,28.04,162.4,25.65,160.7,24.06"/>
			<path class="st1" d="M178.39,32.46c1.12-1.6,2.49-2.89,4.11-3.87c1.62-0.98,3.43-1.69,5.44-2.11c2.01-0.42,4.09-0.63,6.25-0.64
				c1.72-0.01,3.51,0.11,5.37,0.35c1.86,0.24,3.58,0.71,5.15,1.42c1.57,0.71,2.85,1.71,3.86,3c1,1.3,1.48,3.02,1.44,5.18
				c0,1.81-0.26,3.94-0.79,6.4l-3.34,15.29c-0.2,0.69-0.33,1.53-0.4,2.54c-0.07,1.01-0.1,1.88-0.1,2.61c0,0.63,0.12,1.37,0.37,2.2
				l-10.46,0.02l-0.01-3.75c-1.42,1.62-3.16,2.82-5.22,3.59c-2.06,0.77-4.19,1.15-6.4,1.16c-2.06,0-3.87-0.26-5.41-0.79
				c-1.55-0.54-2.84-1.26-3.87-2.16c-1.03-0.9-1.8-1.96-2.29-3.15c-0.49-1.2-0.74-2.46-0.74-3.78c-0.01-3.68,1.25-6.62,3.77-8.83
				c2.52-2.21,6.09-3.59,10.71-4.14c2.45-0.3,4.59-0.53,6.41-0.68c1.81-0.15,3.32-0.39,4.53-0.71c1.2-0.32,2.09-0.79,2.68-1.4
				c0.59-0.61,0.88-1.54,0.88-2.76c0-0.98-0.22-1.76-0.67-2.35c-0.44-0.58-1-1.05-1.66-1.39c-0.66-0.34-1.37-0.57-2.13-0.69
				c-0.76-0.12-1.48-0.18-2.17-0.18c-1.86,0.01-3.53,0.46-5,1.37c-1.47,0.91-2.37,2.33-2.71,4.24l-9.78,0.03
				C176.53,36.06,177.26,34.06,178.39,32.46 M193.98,48.06c-1.52,0.18-3.04,0.31-4.57,0.41c-0.98,0.1-1.94,0.26-2.87,0.48
				c-0.93,0.22-1.75,0.56-2.47,1c-0.71,0.44-1.29,1.05-1.73,1.81c-0.44,0.76-0.66,1.73-0.66,2.9c0,1.42,0.58,2.49,1.74,3.19
				c1.16,0.71,2.5,1.06,4.02,1.05c1.62,0,2.99-0.26,4.09-0.78c1.1-0.52,2.03-1.18,2.79-1.99c0.76-0.81,1.36-1.73,1.8-2.76
				s0.8-2.06,1.1-3.09l1.02-3.68C196.93,47.4,195.5,47.89,193.98,48.06"/>
			<path class="st1" d="M233.85,34.08c-0.91-0.9-2.39-1.35-4.45-1.35c-1.87,0.01-3.4,0.29-4.59,0.86c-1.2,0.57-1.8,1.54-1.8,2.91
				c0,0.83,0.36,1.54,1.07,2.13c0.71,0.59,1.95,1.14,3.71,1.68l5.22,1.68c1.42,0.44,2.73,0.95,3.94,1.53
				c1.2,0.59,2.26,1.31,3.17,2.16c0.91,0.86,1.62,1.87,2.14,3.05c0.52,1.18,0.78,2.54,0.78,4.11c0.01,2.35-0.52,4.35-1.57,5.99
				c-1.05,1.64-2.43,2.98-4.14,4.02c-1.72,1.03-3.65,1.77-5.81,2.22c-2.16,0.44-4.34,0.67-6.55,0.67c-1.86,0.01-3.75-0.19-5.67-0.57
				c-1.91-0.39-3.64-1.03-5.19-1.93c-1.55-0.9-2.81-2.1-3.8-3.59c-0.98-1.49-1.48-3.36-1.48-5.61l0-1.54l9.63-0.02l0,1.24
				c0,0.88,0.22,1.63,0.67,2.27c0.44,0.63,1.02,1.16,1.73,1.57c0.71,0.41,1.52,0.73,2.43,0.94c0.91,0.22,1.81,0.33,2.69,0.32
				c0.78,0,1.57-0.08,2.35-0.23c0.78-0.15,1.49-0.41,2.13-0.78c0.63-0.37,1.15-0.83,1.54-1.4c0.39-0.56,0.58-1.29,0.58-2.17
				c0-1.32-0.35-2.25-1.04-2.79c-0.69-0.54-1.59-1-2.72-1.39l-8.02-2.55c-1.32-0.44-2.49-0.9-3.49-1.39
				c-1.01-0.49-1.86-1.1-2.58-1.83c-0.71-0.73-1.26-1.61-1.62-2.64c-0.37-1.03-0.56-2.3-0.56-3.82c-0.01-2.25,0.52-4.14,1.57-5.66
				c1.05-1.52,2.41-2.76,4.08-3.72c1.67-0.96,3.49-1.65,5.48-2.07c1.99-0.42,3.88-0.64,5.7-0.64c2.05,0,4.04,0.16,5.96,0.5
				c1.91,0.34,3.59,0.96,5.04,1.86c1.45,0.9,2.59,2.13,3.43,3.7c0.84,1.56,1.23,3.57,1.19,6.02l-9.71,0.02
				C235.25,36.25,234.76,34.99,233.85,34.08"/>
			<path class="st1" d="M264.2,11.99l-3.88,19.01h0.15c0.39-0.54,0.96-1.14,1.69-1.78c0.74-0.64,1.63-1.24,2.66-1.79
				c1.03-0.54,2.24-1.01,3.62-1.38c1.38-0.37,2.93-0.56,4.66-0.57c7.45-0.02,11.18,3.4,11.2,10.24c0,0.39-0.05,0.9-0.14,1.52
				c-0.1,0.61-0.21,1.24-0.33,1.88c-0.12,0.64-0.25,1.24-0.37,1.81c-0.12,0.57-0.21,1.03-0.26,1.37l-4.68,22.39l-10.51,0.03
				l4.61-22.38c0.09-0.59,0.23-1.38,0.4-2.36c0.17-0.98,0.26-1.75,0.26-2.29c0-1.13-0.54-2.07-1.6-2.8c-1.06-0.73-2.21-1.1-3.44-1.1
				c-1.58,0-2.97,0.32-4.18,0.93c-1.21,0.62-2.24,1.42-3.1,2.41c-0.86,0.99-1.57,2.12-2.14,3.4c-0.57,1.28-0.99,2.58-1.29,3.92
				l-4.24,20.31l-10.43,0.02l10.82-52.77L264.2,11.99z"/>
		</g>
	</g>
	<g id="layer1" transform="translate(-1036.4012,9.5789168)">
		<g id="g2226" transform="translate(-101.9411,229.36748)">
			<g id="g2193" transform="translate(1138.3423,-331.30859)">
				<path id="path2185" class="st1" d="M296.68,151.1c0,3.35-2.72,6.07-6.07,6.07s-6.07-2.72-6.07-6.07c0-3.35,2.72-6.07,6.07-6.07
					S296.68,147.75,296.68,151.1z"/>
				<path id="path2181" class="st2" d="M295.66,151.1c0,2.79-2.26,5.05-5.05,5.05c-2.79,0-5.05-2.26-5.05-5.05s2.26-5.05,5.05-5.05
					C293.4,146.04,295.66,148.31,295.66,151.1L295.66,151.1z"/>
			</g>
			<path id="path2208" class="st1" d="M1426.31-180.12v-3.26l1.44,0.01c1.43,0.01,1.54,0.01,1.9,0.05c0.55,0.07,0.88,0.21,1.18,0.51
				c0.15,0.15,0.25,0.3,0.34,0.49c0.12,0.26,0.17,0.45,0.17,0.72c0,0.46-0.17,0.87-0.49,1.22c-0.34,0.36-0.71,0.53-1.29,0.61
				l-0.08,0.01l0.15,0.07c0.26,0.13,0.36,0.22,0.62,0.51c0.24,0.28,0.47,0.61,0.86,1.24c0.14,0.23,0.34,0.55,0.45,0.72
				c0.1,0.17,0.2,0.32,0.21,0.34l0.02,0.03h-0.64h-0.64l-0.09-0.15c-0.05-0.09-0.11-0.19-0.13-0.24s-0.07-0.13-0.11-0.2
				c-0.45-0.81-0.52-0.93-0.71-1.21c-0.3-0.45-0.55-0.72-0.79-0.84c-0.2-0.1-0.4-0.13-0.92-0.13l-0.39,0v1.38v1.38h-0.52h-0.52
				V-180.12z"/>
			<path id="path2170" class="st2" d="M1429.15-180.55c0.28-0.04,0.42-0.08,0.59-0.16c0.07-0.03,0.12-0.07,0.2-0.15
				c0.18-0.18,0.26-0.36,0.27-0.62c0.01-0.13,0-0.17-0.02-0.26c-0.07-0.27-0.23-0.47-0.47-0.59c-0.15-0.08-0.27-0.11-0.49-0.14
				c-0.12-0.02-0.32-0.02-1.01-0.03l-0.86-0.01v0.99v0.99l0.82-0.01C1428.82-180.53,1429.03-180.54,1429.15-180.55z"/>
		</g>
	</g>
</g>
</svg>
